{"title":"Legend of the BoneKnapper Dragon 2010 720p BRRip H264 Feel-Free","uid":5935647,"size":150236293,"categoryP":"video","categoryS":"hd___movies","magnet":"?xt=urn:btih:cb344fb7ecaea29e06770949ff7b17433266b6ea&amp;dn=Legend+of+the+BoneKnapper+Dragon+2010+720p+BRRip+H264+Feel-Free&amp;tr=udp%3A%2F%2Ftracker.openbittorrent.com%3A80&amp;tr=udp%3A%2F%2Fopen.demonii.com%3A1337&amp;tr=udp%3A%2F%2Ftracker.coppersurfer.tk%3A6969&amp;tr=udp%3A%2F%2Fexodus.desync.com%3A6969","seeders":0,"leechers":1,"uploader":"deffjam555","files":7,"time":1288934909,"description":"cover\n &lt;a href=&quot;\nhttp://shareimage.ro/images/sqsg6wk6sw51wyeufbm5.png&quot; rel=&quot;nofollow&quot; target=&quot;_NEW&quot;&gt;\nhttp://shareimage.ro/images/sqsg6wk6sw51wyeufbm5.png&lt;/a&gt;\n\nGenre: Animation | Short | Fantasy\nLanguage:English\nIMDb:http://www.imdb.com/title/tt1744776/\nSource:720p BluRay x264-EbP\n\nComplete name :Legend of the BoneKnapper Dragon 2010 720p BRRip H264 Feel-Free\nFormat : MPEG-4\nFormat profile : Base Media / Version 2\nCodec ID : mp42\nFile size : 139 MiB\nDuration : 16mn 33s\nOverall bit rate : 1 177 Kbps\nVideo #1\nCodec ID : avc1\nCodec ID/Info : Advanced Video Coding\nDuration : 16mn 33s\nBit rate mode : Variable\nBit rate : 698 Kbps\nWidth : 1 280 pixels\nHeight : 720 pixels\nDisplay aspect ratio : 16:9\nFrame rate mode : Constant\nFrame rate : 23.976 fps\nResolution : 24 bits\nColorimetry : 4:2:0\nScan type : Progressive\nBits/(Pixel*Frame) : 0.032\nStream size : 82.7 MiB (59%)\nAudio #2\nID : 2\nFormat : AAC\nFormat/Info : Advanced Audio Codec\nFormat version : Version 4\nFormat profile : LC\nFormat settings, SBR : No\nCodec ID : 40\nDuration : 16mn 33s\nBit rate mode : Constant\nBit rate : 475 Kbps\nNominal bit rate : 480 Kbps\nChannel(s) : 6 channels\nChannel positions : Front: L C R, Rear: L R, LFE\nSampling rate : 48.0 KHz\nResolution : 16 bits\nStream size : 56.2 MiB (40%)\n\nPlot:\nHiccup and the gang join Gobber on a quest to find a legendary boneclad Dragon.\n\n\n\nscreens\n &lt;a href=&quot;\nhttp://rapidhdd.com/images/844954vlcsnap-2010-11-04-20h04m50s18.png&quot; rel=&quot;nofollow&quot; target=&quot;_NEW&quot;&gt;\nhttp://rapidhdd.com/images/844954vlcsnap-2010-11-04-20h04m50s18.png&lt;/a&gt; &lt;a href=&quot;\nhttp://www.rapidhdd.com/images/42342vlcsnap-2010-11-04-20h05m01s122.png&quot; rel=&quot;nofollow&quot; target=&quot;_NEW&quot;&gt;\nhttp://www.rapidhdd.com/images/42342vlcsnap-2010-11-04-20h05m01s122.png&lt;/a&gt; &lt;a href=&quot;\nhttp://www.rapidhdd.com/images/296730vlcsnap-2010-11-04-20h04m34s102.png&quot; rel=&quot;nofollow&quot; target=&quot;_NEW&quot;&gt;\nhttp://www.rapidhdd.com/images/296730vlcsnap-2010-11-04-20h04m34s102.png&lt;/a&gt;","torrent":{"xt":"urn:btih:cb344fb7ecaea29e06770949ff7b17433266b6ea","amp;dn":"Legend+of+the+BoneKnapper+Dragon+2010+720p+BRRip+H264+Feel-Free","amp;tr":["udp%3A%2F%2Ftracker.openbittorrent.com%3A80","udp%3A%2F%2Fopen.demonii.com%3A1337","udp%3A%2F%2Ftracker.coppersurfer.tk%3A6969","udp%3A%2F%2Fexodus.desync.com%3A6969"],"infoHash":"cb344fb7ecaea29e06770949ff7b17433266b6ea","infoHashBuffer":{"type":"Buffer","data":[203,52,79,183,236,174,162,158,6,119,9,73,255,123,23,67,50,102,182,234]},"announce":[],"urlList":[]}}